<svg xmlns="http://www.w3.org/2000/svg" width="1440" height="840" viewBox="0 0 1440 840">
<title>Measured MicroK8s temperature and fan-command response</title>
<desc>Node CPU thermal sensor samples; Fan resource values are requested commands, not measured RPM or PWM voltage.</desc>
<style>
        text{font-family:Arial,sans-serif;fill:#20293a}
        .title{font-size:27px;font-weight:700}.sub{font-size:15px;fill:#566276}
        .tick{font-size:14px;fill:#566276}.label{font-size:16px;font-weight:600}
        .small{font-size:13px;fill:#566276}.legend{font-size:14px}
        </style><rect width="100%" height="100%" fill="#fff"/>
<text class="title" x="80" y="48">Measured MicroK8s temperature and fan-command response</text>
<text class="sub" x="80" y="76">Node CPU thermal sensor samples; Fan resource values are requested commands, not measured RPM or PWM voltage.</text>
<rect x="105.0" y="102" width="26.8" height="10" fill="#3478b9" opacity="0.78"/>
<text class="small" x="118.4" y="95.0" text-anchor="middle">1 vCPU load</text>
<rect x="218.7" y="102" width="76.7" height="10" fill="#218b82" opacity="0.78"/>
<text class="small" x="257.0" y="95.0" text-anchor="middle">2 vCPU load</text>
<rect x="370.1" y="102" width="118.8" height="10" fill="#7f63ad" opacity="0.78"/>
<text class="small" x="429.5" y="95.0" text-anchor="middle">No-load observation</text>
<rect x="695.3" y="102" width="79.9" height="10" fill="#e87544" opacity="0.78"/>
<text class="small" x="735.2" y="95.0" text-anchor="middle">3 vCPU load</text>
<rect x="1041.5" y="102" width="188.5" height="10" fill="#7f63ad" opacity="0.78"/>
<text class="small" x="1135.8" y="95.0" text-anchor="middle">No-load observation</text>
<line x1="105.0" y1="611.5" x2="1230.0" y2="611.5" stroke="#d8dee9" stroke-width="1"/>
<text class="tick" x="89.0" y="616.5" text-anchor="end">40°C</text>
<line x1="105.0" y1="477.8" x2="1230.0" y2="477.8" stroke="#d8dee9" stroke-width="1"/>
<text class="tick" x="89.0" y="482.8" text-anchor="end">45°C</text>
<line x1="105.0" y1="344.0" x2="1230.0" y2="344.0" stroke="#d8dee9" stroke-width="1"/>
<text class="tick" x="89.0" y="349.0" text-anchor="end">50°C</text>
<line x1="105.0" y1="210.2" x2="1230.0" y2="210.2" stroke="#d8dee9" stroke-width="1"/>
<text class="tick" x="89.0" y="215.2" text-anchor="end">55°C</text>
<text class="tick" x="1248.0" y="670.0" text-anchor="start">0%</text>
<text class="tick" x="1248.0" y="563.0" text-anchor="start">20%</text>
<text class="tick" x="1248.0" y="456.0" text-anchor="start">40%</text>
<text class="tick" x="1248.0" y="349.0" text-anchor="start">60%</text>
<text class="tick" x="1248.0" y="242.0" text-anchor="start">80%</text>
<text class="tick" x="1248.0" y="135.0" text-anchor="start">100%</text>
<line x1="105.0" y1="130.0" x2="105.0" y2="665.0" stroke="#19264d" stroke-width="2"/>
<line x1="105.0" y1="665.0" x2="1230.0" y2="665.0" stroke="#19264d" stroke-width="2"/>
<line x1="1230.0" y1="130.0" x2="1230.0" y2="665.0" stroke="#19264d" stroke-width="2"/>
<text class="label" x="35.0" y="397.5" transform="rotate(-90 35 397.5)" text-anchor="middle">Temperature</text>
<text class="label" x="1303.0" y="397.5" transform="rotate(-90 1303 397.5)" text-anchor="middle">Duty command</text>
<line x1="105.0" y1="130.0" x2="105.0" y2="665.0" stroke="#edf0f5" stroke-width="1"/>
<text class="tick" x="105.0" y="690.0" text-anchor="middle">12:54</text>
<line x1="230.0" y1="130.0" x2="230.0" y2="665.0" stroke="#edf0f5" stroke-width="1"/>
<text class="tick" x="230.0" y="690.0" text-anchor="middle">12:57</text>
<line x1="355.0" y1="130.0" x2="355.0" y2="665.0" stroke="#edf0f5" stroke-width="1"/>
<text class="tick" x="355.0" y="690.0" text-anchor="middle">13:00</text>
<line x1="480.0" y1="130.0" x2="480.0" y2="665.0" stroke="#edf0f5" stroke-width="1"/>
<text class="tick" x="480.0" y="690.0" text-anchor="middle">13:04</text>
<line x1="605.0" y1="130.0" x2="605.0" y2="665.0" stroke="#edf0f5" stroke-width="1"/>
<text class="tick" x="605.0" y="690.0" text-anchor="middle">13:07</text>
<line x1="730.0" y1="130.0" x2="730.0" y2="665.0" stroke="#edf0f5" stroke-width="1"/>
<text class="tick" x="730.0" y="690.0" text-anchor="middle">13:10</text>
<line x1="855.0" y1="130.0" x2="855.0" y2="665.0" stroke="#edf0f5" stroke-width="1"/>
<text class="tick" x="855.0" y="690.0" text-anchor="middle">13:13</text>
<line x1="980.0" y1="130.0" x2="980.0" y2="665.0" stroke="#edf0f5" stroke-width="1"/>
<text class="tick" x="980.0" y="690.0" text-anchor="middle">13:17</text>
<line x1="1105.0" y1="130.0" x2="1105.0" y2="665.0" stroke="#edf0f5" stroke-width="1"/>
<text class="tick" x="1105.0" y="690.0" text-anchor="middle">13:20</text>
<line x1="1230.0" y1="130.0" x2="1230.0" y2="665.0" stroke="#edf0f5" stroke-width="1"/>
<text class="tick" x="1230.0" y="690.0" text-anchor="middle">13:23</text>
<polyline points="105.0,392.2 112.0,366.1 118.4,379.1 125.4,392.2 131.8,392.2" fill="none" stroke="#3478b9" stroke-width="2.5" stroke-linejoin="round" stroke-linecap="round"/>
<circle cx="105.0" cy="392.2" r="3" fill="#3478b9"/>
<circle cx="112.0" cy="366.1" r="3" fill="#3478b9"/>
<circle cx="118.4" cy="379.1" r="3" fill="#3478b9"/>
<circle cx="125.4" cy="392.2" r="3" fill="#3478b9"/>
<circle cx="131.8" cy="392.2" r="3" fill="#3478b9"/>
<polyline points="218.7,431.3 226.4,379.1 232.8,340.1 239.8,366.1 247.5,366.1 253.9,379.1 260.9,340.1 267.3,353.1 274.3,366.1 282.0,431.3 289.0,483.4 295.4,483.4" fill="none" stroke="#3478b9" stroke-width="2.5" stroke-linejoin="round" stroke-linecap="round"/>
<circle cx="218.7" cy="431.3" r="3" fill="#3478b9"/>
<circle cx="226.4" cy="379.1" r="3" fill="#3478b9"/>
<circle cx="232.8" cy="340.1" r="3" fill="#3478b9"/>
<circle cx="239.8" cy="366.1" r="3" fill="#3478b9"/>
<circle cx="247.5" cy="366.1" r="3" fill="#3478b9"/>
<circle cx="253.9" cy="379.1" r="3" fill="#3478b9"/>
<circle cx="260.9" cy="340.1" r="3" fill="#3478b9"/>
<circle cx="267.3" cy="353.1" r="3" fill="#3478b9"/>
<circle cx="274.3" cy="366.1" r="3" fill="#3478b9"/>
<circle cx="282.0" cy="431.3" r="3" fill="#3478b9"/>
<circle cx="289.0" cy="483.4" r="3" fill="#3478b9"/>
<circle cx="295.4" cy="483.4" r="3" fill="#3478b9"/>
<polyline points="370.1,548.5 376.5,483.4 385.5,522.4 392.5,548.5 399.5,496.4 405.9,522.4 412.9,548.5 421.2,587.6 428.3,548.5 434.6,561.5 441.7,548.5 448.1,522.4 455.1,548.5 462.1,535.5 468.5,535.5 475.5,574.6 482.6,548.5 488.9,574.6" fill="none" stroke="#3478b9" stroke-width="2.5" stroke-linejoin="round" stroke-linecap="round"/>
<circle cx="370.1" cy="548.5" r="3" fill="#3478b9"/>
<circle cx="376.5" cy="483.4" r="3" fill="#3478b9"/>
<circle cx="385.5" cy="522.4" r="3" fill="#3478b9"/>
<circle cx="392.5" cy="548.5" r="3" fill="#3478b9"/>
<circle cx="399.5" cy="496.4" r="3" fill="#3478b9"/>
<circle cx="405.9" cy="522.4" r="3" fill="#3478b9"/>
<circle cx="412.9" cy="548.5" r="3" fill="#3478b9"/>
<circle cx="421.2" cy="587.6" r="3" fill="#3478b9"/>
<circle cx="428.3" cy="548.5" r="3" fill="#3478b9"/>
<circle cx="434.6" cy="561.5" r="3" fill="#3478b9"/>
<circle cx="441.7" cy="548.5" r="3" fill="#3478b9"/>
<circle cx="448.1" cy="522.4" r="3" fill="#3478b9"/>
<circle cx="455.1" cy="548.5" r="3" fill="#3478b9"/>
<circle cx="462.1" cy="535.5" r="3" fill="#3478b9"/>
<circle cx="468.5" cy="535.5" r="3" fill="#3478b9"/>
<circle cx="475.5" cy="574.6" r="3" fill="#3478b9"/>
<circle cx="482.6" cy="548.5" r="3" fill="#3478b9"/>
<circle cx="488.9" cy="574.6" r="3" fill="#3478b9"/>
<polyline points="695.3,418.2 702.3,379.1 708.7,392.2 715.1,392.2 722.1,366.1 728.5,379.1 735.5,366.1 741.9,405.2 749.0,418.2 755.3,379.1 762.4,444.3 768.8,457.3 775.1,431.3" fill="none" stroke="#3478b9" stroke-width="2.5" stroke-linejoin="round" stroke-linecap="round"/>
<circle cx="695.3" cy="418.2" r="3" fill="#3478b9"/>
<circle cx="702.3" cy="379.1" r="3" fill="#3478b9"/>
<circle cx="708.7" cy="392.2" r="3" fill="#3478b9"/>
<circle cx="715.1" cy="392.2" r="3" fill="#3478b9"/>
<circle cx="722.1" cy="366.1" r="3" fill="#3478b9"/>
<circle cx="728.5" cy="379.1" r="3" fill="#3478b9"/>
<circle cx="735.5" cy="366.1" r="3" fill="#3478b9"/>
<circle cx="741.9" cy="405.2" r="3" fill="#3478b9"/>
<circle cx="749.0" cy="418.2" r="3" fill="#3478b9"/>
<circle cx="755.3" cy="379.1" r="3" fill="#3478b9"/>
<circle cx="762.4" cy="444.3" r="3" fill="#3478b9"/>
<circle cx="768.8" cy="457.3" r="3" fill="#3478b9"/>
<circle cx="775.1" cy="431.3" r="3" fill="#3478b9"/>
<polyline points="1041.5,587.6 1051.8,548.5 1061.3,548.5 1071.6,535.5 1081.1,548.5 1090.7,535.5 1101.0,535.5 1110.5,535.5 1120.8,548.5 1130.3,548.5 1140.6,535.5 1150.1,509.4 1160.4,509.4 1169.9,561.5 1180.8,574.6 1190.4,574.6 1200.6,574.6 1210.2,600.6 1220.4,535.5 1230.0,535.5" fill="none" stroke="#3478b9" stroke-width="2.5" stroke-linejoin="round" stroke-linecap="round"/>
<circle cx="1041.5" cy="587.6" r="3" fill="#3478b9"/>
<circle cx="1051.8" cy="548.5" r="3" fill="#3478b9"/>
<circle cx="1061.3" cy="548.5" r="3" fill="#3478b9"/>
<circle cx="1071.6" cy="535.5" r="3" fill="#3478b9"/>
<circle cx="1081.1" cy="548.5" r="3" fill="#3478b9"/>
<circle cx="1090.7" cy="535.5" r="3" fill="#3478b9"/>
<circle cx="1101.0" cy="535.5" r="3" fill="#3478b9"/>
<circle cx="1110.5" cy="535.5" r="3" fill="#3478b9"/>
<circle cx="1120.8" cy="548.5" r="3" fill="#3478b9"/>
<circle cx="1130.3" cy="548.5" r="3" fill="#3478b9"/>
<circle cx="1140.6" cy="535.5" r="3" fill="#3478b9"/>
<circle cx="1150.1" cy="509.4" r="3" fill="#3478b9"/>
<circle cx="1160.4" cy="509.4" r="3" fill="#3478b9"/>
<circle cx="1169.9" cy="561.5" r="3" fill="#3478b9"/>
<circle cx="1180.8" cy="574.6" r="3" fill="#3478b9"/>
<circle cx="1190.4" cy="574.6" r="3" fill="#3478b9"/>
<circle cx="1200.6" cy="574.6" r="3" fill="#3478b9"/>
<circle cx="1210.2" cy="600.6" r="3" fill="#3478b9"/>
<circle cx="1220.4" cy="535.5" r="3" fill="#3478b9"/>
<circle cx="1230.0" cy="535.5" r="3" fill="#3478b9"/>
<polyline points="105.0,295.9 112.0,310.6 118.4,379.1 125.4,310.6 131.8,340.0" fill="none" stroke="#19264d" stroke-width="3" stroke-linejoin="round" stroke-linecap="round"/>
<circle cx="105.0" cy="295.9" r="3.2" fill="#19264d"/>
<circle cx="112.0" cy="310.6" r="3.2" fill="#19264d"/>
<circle cx="118.4" cy="379.1" r="3.2" fill="#19264d"/>
<circle cx="125.4" cy="310.6" r="3.2" fill="#19264d"/>
<circle cx="131.8" cy="340.0" r="3.2" fill="#19264d"/>
<polyline points="218.7,369.4 226.4,354.7 232.8,325.3 239.8,295.9 247.5,325.3 253.9,281.1 260.9,281.1 267.3,340.0 274.3,366.1 282.0,354.7 289.0,325.3 295.4,310.6" fill="none" stroke="#19264d" stroke-width="3" stroke-linejoin="round" stroke-linecap="round"/>
<circle cx="218.7" cy="369.4" r="3.2" fill="#19264d"/>
<circle cx="226.4" cy="354.7" r="3.2" fill="#19264d"/>
<circle cx="232.8" cy="325.3" r="3.2" fill="#19264d"/>
<circle cx="239.8" cy="295.9" r="3.2" fill="#19264d"/>
<circle cx="247.5" cy="325.3" r="3.2" fill="#19264d"/>
<circle cx="253.9" cy="281.1" r="3.2" fill="#19264d"/>
<circle cx="260.9" cy="281.1" r="3.2" fill="#19264d"/>
<circle cx="267.3" cy="340.0" r="3.2" fill="#19264d"/>
<circle cx="274.3" cy="366.1" r="3.2" fill="#19264d"/>
<circle cx="282.0" cy="354.7" r="3.2" fill="#19264d"/>
<circle cx="289.0" cy="325.3" r="3.2" fill="#19264d"/>
<circle cx="295.4" cy="310.6" r="3.2" fill="#19264d"/>
<polyline points="370.1,310.6 376.5,325.3 385.5,266.4 392.5,281.1 399.5,295.9 405.9,281.1 412.9,310.6 421.2,369.4 428.3,384.1 434.6,384.1 441.7,340.0 448.1,340.0 455.1,340.0 462.1,295.9 468.5,281.1 475.5,310.6 482.6,310.6 488.9,266.4" fill="none" stroke="#19264d" stroke-width="3" stroke-linejoin="round" stroke-linecap="round"/>
<circle cx="370.1" cy="310.6" r="3.2" fill="#19264d"/>
<circle cx="376.5" cy="325.3" r="3.2" fill="#19264d"/>
<circle cx="385.5" cy="266.4" r="3.2" fill="#19264d"/>
<circle cx="392.5" cy="281.1" r="3.2" fill="#19264d"/>
<circle cx="399.5" cy="295.9" r="3.2" fill="#19264d"/>
<circle cx="405.9" cy="281.1" r="3.2" fill="#19264d"/>
<circle cx="412.9" cy="310.6" r="3.2" fill="#19264d"/>
<circle cx="421.2" cy="369.4" r="3.2" fill="#19264d"/>
<circle cx="428.3" cy="384.1" r="3.2" fill="#19264d"/>
<circle cx="434.6" cy="384.1" r="3.2" fill="#19264d"/>
<circle cx="441.7" cy="340.0" r="3.2" fill="#19264d"/>
<circle cx="448.1" cy="340.0" r="3.2" fill="#19264d"/>
<circle cx="455.1" cy="340.0" r="3.2" fill="#19264d"/>
<circle cx="462.1" cy="295.9" r="3.2" fill="#19264d"/>
<circle cx="468.5" cy="281.1" r="3.2" fill="#19264d"/>
<circle cx="475.5" cy="310.6" r="3.2" fill="#19264d"/>
<circle cx="482.6" cy="310.6" r="3.2" fill="#19264d"/>
<circle cx="488.9" cy="266.4" r="3.2" fill="#19264d"/>
<polyline points="695.3,325.3 702.3,295.9 708.7,295.9 715.1,281.1 722.1,207.6 728.5,295.9 735.5,354.7 741.9,340.0 749.0,354.7 755.3,354.7 762.4,369.4 768.8,295.9 775.1,266.4" fill="none" stroke="#19264d" stroke-width="3" stroke-linejoin="round" stroke-linecap="round"/>
<circle cx="695.3" cy="325.3" r="3.2" fill="#19264d"/>
<circle cx="702.3" cy="295.9" r="3.2" fill="#19264d"/>
<circle cx="708.7" cy="295.9" r="3.2" fill="#19264d"/>
<circle cx="715.1" cy="281.1" r="3.2" fill="#19264d"/>
<circle cx="722.1" cy="207.6" r="3.2" fill="#19264d"/>
<circle cx="728.5" cy="295.9" r="3.2" fill="#19264d"/>
<circle cx="735.5" cy="354.7" r="3.2" fill="#19264d"/>
<circle cx="741.9" cy="340.0" r="3.2" fill="#19264d"/>
<circle cx="749.0" cy="354.7" r="3.2" fill="#19264d"/>
<circle cx="755.3" cy="354.7" r="3.2" fill="#19264d"/>
<circle cx="762.4" cy="369.4" r="3.2" fill="#19264d"/>
<circle cx="768.8" cy="295.9" r="3.2" fill="#19264d"/>
<circle cx="775.1" cy="266.4" r="3.2" fill="#19264d"/>
<polyline points="1041.5,354.7 1051.8,369.4 1061.3,310.6 1071.6,325.3 1081.1,222.3 1090.7,340.0 1101.0,310.6 1110.5,325.3 1120.8,369.4 1130.3,369.4 1140.6,325.3 1150.1,295.9 1160.4,310.6 1169.9,310.6 1180.8,281.1 1190.4,310.6 1200.6,354.7 1210.2,369.4 1220.4,310.6 1230.0,310.6" fill="none" stroke="#19264d" stroke-width="3" stroke-linejoin="round" stroke-linecap="round"/>
<circle cx="1041.5" cy="354.7" r="3.2" fill="#19264d"/>
<circle cx="1051.8" cy="369.4" r="3.2" fill="#19264d"/>
<circle cx="1061.3" cy="310.6" r="3.2" fill="#19264d"/>
<circle cx="1071.6" cy="325.3" r="3.2" fill="#19264d"/>
<circle cx="1081.1" cy="222.3" r="3.2" fill="#19264d"/>
<circle cx="1090.7" cy="340.0" r="3.2" fill="#19264d"/>
<circle cx="1101.0" cy="310.6" r="3.2" fill="#19264d"/>
<circle cx="1110.5" cy="325.3" r="3.2" fill="#19264d"/>
<circle cx="1120.8" cy="369.4" r="3.2" fill="#19264d"/>
<circle cx="1130.3" cy="369.4" r="3.2" fill="#19264d"/>
<circle cx="1140.6" cy="325.3" r="3.2" fill="#19264d"/>
<circle cx="1150.1" cy="295.9" r="3.2" fill="#19264d"/>
<circle cx="1160.4" cy="310.6" r="3.2" fill="#19264d"/>
<circle cx="1169.9" cy="310.6" r="3.2" fill="#19264d"/>
<circle cx="1180.8" cy="281.1" r="3.2" fill="#19264d"/>
<circle cx="1190.4" cy="310.6" r="3.2" fill="#19264d"/>
<circle cx="1200.6" cy="354.7" r="3.2" fill="#19264d"/>
<circle cx="1210.2" cy="369.4" r="3.2" fill="#19264d"/>
<circle cx="1220.4" cy="310.6" r="3.2" fill="#19264d"/>
<circle cx="1230.0" cy="310.6" r="3.2" fill="#19264d"/>
<polyline points="105.0,295.9 112.0,295.9 118.4,366.1 125.4,366.1 131.8,366.1" fill="none" stroke="#7f63ad" stroke-width="2" stroke-dasharray="7 5"/>
<polyline points="105.0,470.8 112.0,470.8 118.4,507.8 125.4,507.8 131.8,507.8" fill="none" stroke="#ed3158" stroke-width="2.5" stroke-linejoin="round"/>
<circle cx="105.0" cy="470.8" r="3" fill="#ed3158"/>
<circle cx="112.0" cy="470.8" r="3" fill="#ed3158"/>
<circle cx="118.4" cy="507.8" r="3" fill="#ed3158"/>
<circle cx="125.4" cy="507.8" r="3" fill="#ed3158"/>
<circle cx="131.8" cy="507.8" r="3" fill="#ed3158"/>
<polyline points="218.7,295.9 226.4,369.4 232.8,369.4 239.8,369.4 247.5,295.9 253.9,295.9 260.9,295.9 267.3,281.1 274.3,281.1 282.0,281.1 289.0,354.7 295.4,354.7" fill="none" stroke="#7f63ad" stroke-width="2" stroke-dasharray="7 5"/>
<polyline points="218.7,470.8 226.4,577.8 232.8,577.8 239.8,577.8 247.5,470.8 253.9,470.8 260.9,470.8 267.3,460.5 274.3,460.5 282.0,460.5 289.0,608.7 295.4,608.7" fill="none" stroke="#ed3158" stroke-width="2.5" stroke-linejoin="round"/>
<circle cx="218.7" cy="470.8" r="3" fill="#ed3158"/>
<circle cx="226.4" cy="577.8" r="3" fill="#ed3158"/>
<circle cx="232.8" cy="577.8" r="3" fill="#ed3158"/>
<circle cx="239.8" cy="577.8" r="3" fill="#ed3158"/>
<circle cx="247.5" cy="470.8" r="3" fill="#ed3158"/>
<circle cx="253.9" cy="470.8" r="3" fill="#ed3158"/>
<circle cx="260.9" cy="470.8" r="3" fill="#ed3158"/>
<circle cx="267.3" cy="460.5" r="3" fill="#ed3158"/>
<circle cx="274.3" cy="460.5" r="3" fill="#ed3158"/>
<circle cx="282.0" cy="460.5" r="3" fill="#ed3158"/>
<circle cx="289.0" cy="608.7" r="3" fill="#ed3158"/>
<circle cx="295.4" cy="608.7" r="3" fill="#ed3158"/>
<polyline points="370.1,369.4 376.5,369.4 385.5,369.4 392.5,281.1 399.5,281.1 405.9,281.1 412.9,281.1 421.2,281.1 428.3,281.1 434.6,384.1 441.7,384.1 448.1,384.1 455.1,340.0 462.1,340.0 468.5,340.0 475.5,310.6 482.6,310.6 488.9,310.6" fill="none" stroke="#7f63ad" stroke-width="2" stroke-dasharray="7 5"/>
<polyline points="370.1,653.9 376.5,653.9 385.5,653.9 392.5,460.5 399.5,460.5 405.9,460.5 412.9,460.5 421.2,460.5 428.3,460.5 434.6,588.1 441.7,588.1 448.1,588.1 455.1,501.7 462.1,501.7 468.5,501.7 475.5,481.1 482.6,481.1 488.9,481.1" fill="none" stroke="#ed3158" stroke-width="2.5" stroke-linejoin="round"/>
<circle cx="370.1" cy="653.9" r="3" fill="#ed3158"/>
<circle cx="376.5" cy="653.9" r="3" fill="#ed3158"/>
<circle cx="385.5" cy="653.9" r="3" fill="#ed3158"/>
<circle cx="392.5" cy="460.5" r="3" fill="#ed3158"/>
<circle cx="399.5" cy="460.5" r="3" fill="#ed3158"/>
<circle cx="405.9" cy="460.5" r="3" fill="#ed3158"/>
<circle cx="412.9" cy="460.5" r="3" fill="#ed3158"/>
<circle cx="421.2" cy="460.5" r="3" fill="#ed3158"/>
<circle cx="428.3" cy="460.5" r="3" fill="#ed3158"/>
<circle cx="434.6" cy="588.1" r="3" fill="#ed3158"/>
<circle cx="441.7" cy="588.1" r="3" fill="#ed3158"/>
<circle cx="448.1" cy="588.1" r="3" fill="#ed3158"/>
<circle cx="455.1" cy="501.7" r="3" fill="#ed3158"/>
<circle cx="462.1" cy="501.7" r="3" fill="#ed3158"/>
<circle cx="468.5" cy="501.7" r="3" fill="#ed3158"/>
<circle cx="475.5" cy="481.1" r="3" fill="#ed3158"/>
<circle cx="482.6" cy="481.1" r="3" fill="#ed3158"/>
<circle cx="488.9" cy="481.1" r="3" fill="#ed3158"/>
<polyline points="695.3,281.1 702.3,281.1 708.7,295.9 715.1,295.9 722.1,295.9 728.5,207.6 735.5,207.6 741.9,207.6 749.0,340.0 755.3,340.0 762.4,340.0 768.8,340.0 775.1,295.9" fill="none" stroke="#7f63ad" stroke-width="2" stroke-dasharray="7 5"/>
<polyline points="695.3,460.5 702.3,460.5 708.7,470.8 715.1,470.8 722.1,470.8 728.5,409.0 735.5,409.0 741.9,409.0 749.0,501.7 755.3,501.7 762.4,501.7 768.8,501.7 775.1,470.8" fill="none" stroke="#ed3158" stroke-width="2.5" stroke-linejoin="round"/>
<circle cx="695.3" cy="460.5" r="3" fill="#ed3158"/>
<circle cx="702.3" cy="460.5" r="3" fill="#ed3158"/>
<circle cx="708.7" cy="470.8" r="3" fill="#ed3158"/>
<circle cx="715.1" cy="470.8" r="3" fill="#ed3158"/>
<circle cx="722.1" cy="470.8" r="3" fill="#ed3158"/>
<circle cx="728.5" cy="409.0" r="3" fill="#ed3158"/>
<circle cx="735.5" cy="409.0" r="3" fill="#ed3158"/>
<circle cx="741.9" cy="409.0" r="3" fill="#ed3158"/>
<circle cx="749.0" cy="501.7" r="3" fill="#ed3158"/>
<circle cx="755.3" cy="501.7" r="3" fill="#ed3158"/>
<circle cx="762.4" cy="501.7" r="3" fill="#ed3158"/>
<circle cx="768.8" cy="501.7" r="3" fill="#ed3158"/>
<circle cx="775.1" cy="470.8" r="3" fill="#ed3158"/>
<polyline points="1041.5,354.7 1051.8,354.7 1061.3,310.6 1071.6,310.6 1081.1,222.3 1090.7,222.3 1101.0,310.6 1110.5,310.6 1120.8,310.6 1130.3,369.4 1140.6,369.4 1150.1,325.3 1160.4,325.3 1169.9,310.6 1180.8,310.6 1190.4,310.6 1200.6,310.6 1210.2,369.4 1220.4,369.4 1230.0,310.6" fill="none" stroke="#7f63ad" stroke-width="2" stroke-dasharray="7 5"/>
<polyline points="1041.5,561.3 1051.8,561.3 1061.3,481.1 1071.6,481.1 1081.1,419.3 1090.7,419.3 1101.0,481.1 1110.5,481.1 1120.8,481.1 1130.3,571.6 1140.6,571.6 1150.1,491.4 1160.4,491.4 1169.9,481.1 1180.8,481.1 1190.4,481.1 1200.6,481.1 1210.2,571.6 1220.4,571.6 1230.0,481.1" fill="none" stroke="#ed3158" stroke-width="2.5" stroke-linejoin="round"/>
<circle cx="1041.5" cy="561.3" r="3" fill="#ed3158"/>
<circle cx="1051.8" cy="561.3" r="3" fill="#ed3158"/>
<circle cx="1061.3" cy="481.1" r="3" fill="#ed3158"/>
<circle cx="1071.6" cy="481.1" r="3" fill="#ed3158"/>
<circle cx="1081.1" cy="419.3" r="3" fill="#ed3158"/>
<circle cx="1090.7" cy="419.3" r="3" fill="#ed3158"/>
<circle cx="1101.0" cy="481.1" r="3" fill="#ed3158"/>
<circle cx="1110.5" cy="481.1" r="3" fill="#ed3158"/>
<circle cx="1120.8" cy="481.1" r="3" fill="#ed3158"/>
<circle cx="1130.3" cy="571.6" r="3" fill="#ed3158"/>
<circle cx="1140.6" cy="571.6" r="3" fill="#ed3158"/>
<circle cx="1150.1" cy="491.4" r="3" fill="#ed3158"/>
<circle cx="1160.4" cy="491.4" r="3" fill="#ed3158"/>
<circle cx="1169.9" cy="481.1" r="3" fill="#ed3158"/>
<circle cx="1180.8" cy="481.1" r="3" fill="#ed3158"/>
<circle cx="1190.4" cy="481.1" r="3" fill="#ed3158"/>
<circle cx="1200.6" cy="481.1" r="3" fill="#ed3158"/>
<circle cx="1210.2" cy="571.6" r="3" fill="#ed3158"/>
<circle cx="1220.4" cy="571.6" r="3" fill="#ed3158"/>
<circle cx="1230.0" cy="481.1" r="3" fill="#ed3158"/>
<line x1="116.0" y1="738.0" x2="146.0" y2="738.0" stroke="#19264d" stroke-width="4"/>
<text class="legend" x="154.0" y="743.0" text-anchor="start">Cluster maximum</text>
<line x1="366.0" y1="738.0" x2="396.0" y2="738.0" stroke="#3478b9" stroke-width="4"/>
<text class="legend" x="404.0" y="743.0" text-anchor="start">raspi-41, load target</text>
<line x1="616.0" y1="738.0" x2="646.0" y2="738.0" stroke="#7f63ad" stroke-width="4"/>
<text class="legend" x="654.0" y="743.0" text-anchor="start">Fan status control temperature</text>
<line x1="866.0" y1="738.0" x2="896.0" y2="738.0" stroke="#ed3158" stroke-width="4"/>
<text class="legend" x="904.0" y="743.0" text-anchor="start">Fan status requested duty</text>
<text class="small" x="720.0" y="790.0" text-anchor="middle">Max sensor reading: 55.1°C on raspi-51; the loaded node raspi-41 peaked at 50.147°C.</text>
</svg>
